# Blender v2.81 (sub 16) OBJ File: 'battleship2.blend'
# www.blender.org
mtllib turretModule.mtl
v 1.830486 -1.393121 -1.806885
v 1.790012 -1.393121 1.847360
v 2.567068 -1.393121 0.028620
v -1.823759 -1.393121 -1.847359
v -1.864233 -1.393121 1.806885
v -2.600815 -1.393121 -0.028620
v 1.832119 1.393121 1.815246
v -1.798373 1.393121 1.815246
v 2.584018 1.393121 -0.000000
v 1.832119 1.393121 -1.815246
v -1.798373 1.393121 -1.815246
v -2.550272 1.393121 0.000000
v 0.011746 -1.393121 -2.583942
v -0.045494 -1.393121 2.583942
v 0.016873 1.393121 -2.567146
v 0.016873 1.393121 2.567146
vt 0.001168 0.499978
vt 0.000043 0.374982
vt 0.176157 0.374129
vt 0.177261 0.498305
vt 0.005173 0.874958
vt 0.004306 0.749960
vt 0.180385 0.746647
vt 0.181254 0.870825
vt 0.002863 0.624968
vt 0.178944 0.622475
vt 0.005812 0.999957
vt 0.181887 0.995004
vt 0.000315 0.249982
vt 0.176450 0.249949
vt 0.002327 0.124997
vt 0.178473 0.125785
vt 0.005750 0.000043
vt 0.181887 0.001651
vn -0.3775 0.0102 -0.9259
vn 0.9217 -0.0055 0.3878
vn 0.9260 -0.0056 -0.3775
vn 0.3775 0.0010 0.9260
vn -0.9216 0.0168 -0.3878
vn -0.9259 0.0168 0.3775
vn -0.3878 0.0103 0.9217
vn 0.3878 0.0009 -0.9217
usemtl None
s off
f 13/1/1 4/2/1 11/3/1 15/4/1
f 2/5/2 3/6/2 9/7/2 7/8/2
f 3/6/3 1/9/3 10/10/3 9/7/3
f 14/11/4 2/5/4 7/8/4 16/12/4
f 4/2/5 6/13/5 12/14/5 11/3/5
f 6/13/6 5/15/6 8/16/6 12/14/6
f 5/15/7 14/17/7 16/18/7 8/16/7
f 1/9/8 13/1/8 15/4/8 10/10/8
