# Blender v2.81 (sub 16) OBJ File: 'drone2.blend'
# www.blender.org
mtllib drone2.mtl
o Cube
v 1.000000 -1.000000 -1.000000
v 1.000000 -1.000000 1.000000
v -1.000000 -1.000000 -1.000000
v -1.000000 -1.000000 1.000000
v 0.416667 -1.250000 -1.250000
v -0.416667 -1.250000 -1.250000
v -0.416667 -1.250000 1.250000
v 0.416667 -1.250000 1.250000
v 1.250000 0.416667 -1.250000
v 1.250000 -0.416667 -1.250000
v -1.250000 -0.416667 1.250000
v -1.250000 0.416667 1.250000
v 1.250000 0.416667 1.250000
v 1.250000 -0.416667 1.250000
v -1.250000 0.416667 -1.250000
v -1.250000 -0.416667 -1.250000
v -0.520833 0.520833 -1.562500
v -0.520833 -0.520833 -1.562500
v 0.520833 0.520833 -1.562500
v 0.520833 -0.520833 -1.562500
v 0.520833 0.520833 1.562500
v 0.520833 -0.520833 1.562500
v -0.520833 0.520833 1.562500
v -0.520833 -0.520833 1.562500
v -0.250000 -0.250000 -0.083333
v -0.250000 -0.250000 0.083333
v 0.250000 0.250000 -0.083333
v 0.250000 0.250000 0.083333
v -0.250000 0.250000 0.083333
v -0.250000 0.250000 -0.083333
v 0.250000 -0.250000 0.083333
v 0.250000 -0.250000 -0.083333
v 0.104167 0.312500 -0.104167
v 0.104167 0.312500 0.104167
v -0.104167 0.312500 -0.104167
v -0.104167 0.312500 0.104167
v 0.312500 -0.104167 -0.104167
v 0.312500 -0.104167 0.104167
v 0.312500 0.104167 -0.104167
v 0.312500 0.104167 0.104167
v -0.312500 -0.104167 0.104167
v -0.312500 -0.104167 -0.104167
v -0.312500 0.104167 0.104167
v -0.312500 0.104167 -0.104167
v -0.625000 0.625000 -0.541667
v 0.625000 -0.625000 -0.541667
v -0.781250 -0.260417 -0.677083
v -0.781250 0.260417 -0.677083
v -0.625000 -0.625000 -0.541667
v 0.625000 0.625000 -0.541667
v 0.260417 0.781250 -0.677083
v -0.260417 0.781250 -0.677083
v 0.781250 -0.260417 -0.677083
v 0.781250 0.260417 -0.677083
v -0.625000 -0.625000 0.541667
v 0.625000 0.625000 0.541667
v 0.260417 0.781250 0.677083
v -0.260417 0.781250 0.677083
v 0.781250 -0.260417 0.677083
v 0.781250 0.260417 0.677083
v -0.625000 0.625000 0.541667
v 0.625000 -0.625000 0.541667
v -0.781250 -0.260417 0.677083
v -0.781250 0.260417 0.677083
v 0.947116 0.947116 0.935364
v 1.041558 0.903031 1.041558
v -1.041558 0.903031 1.041558
v -0.947116 0.947116 0.935364
v 0.395071 1.185213 1.170816
v 0.430137 1.155709 1.290411
v -0.430137 1.155709 1.290411
v -0.395071 1.185213 1.170816
v 1.041558 0.903031 -1.041558
v 0.947116 0.947116 -0.935364
v -0.947116 0.947116 -0.935364
v -1.041558 0.903031 -1.041558
v -0.395071 1.185213 -1.170816
v -0.430137 1.155709 -1.290411
v 0.430137 1.155709 -1.290411
v 0.395071 1.185213 -1.170816
v 1.481507 0.223029 -1.128464
v 1.481507 -0.223029 -1.128464
v 1.481507 0.223029 1.128464
v 1.481507 -0.223029 1.128464
v 1.211634 -0.133071 0.798619
v 1.211634 0.133071 0.798619
v 1.211634 -0.133071 -0.798619
v 1.211634 0.133071 -0.798619
v 1.580946 0.416667 -1.250000
v 1.580946 -0.416667 -1.250000
v 1.580946 0.416667 1.250000
v 1.580946 -0.416667 1.250000
v 1.112196 -0.260417 0.677083
v 1.112196 0.260417 0.677083
v 1.112196 -0.260417 -0.677083
v 1.112196 0.260417 -0.677083
v 1.983142 0.223029 -1.128464
v 1.983142 -0.223029 -1.128464
v 1.983142 0.223029 1.128464
v 1.983142 -0.223029 1.128464
v 1.713269 -0.133071 0.798619
v 1.713269 0.133071 0.798619
v 1.713269 -0.133071 -0.798619
v 1.713269 0.133071 -0.798619
vt 0.782556 0.395579
vt 0.734893 0.397469
vt 0.733615 0.347649
vt 0.780214 0.341688
vt 0.695627 0.399505
vt 0.698838 0.355914
vt 0.270763 0.229977
vt 0.226779 0.222843
vt 0.230523 0.176899
vt 0.276528 0.176726
vt 0.667917 0.332582
vt 0.693713 0.348590
vt 0.653819 0.393309
vt 0.360566 0.287473
vt 0.319214 0.241115
vt 0.313743 0.230288
vt 0.321452 0.172455
vt 0.386446 0.173116
vt 0.155423 0.173823
vt 0.194560 0.171906
vt 0.194129 0.212539
vt 0.188731 0.219110
vt 0.163025 0.232544
vt 0.892728 0.406117
vt 0.828235 0.402983
vt 0.824966 0.344544
vt 0.831336 0.333846
vt 0.877862 0.291212
vt 0.781155 0.332586
vt 0.788446 0.278606
vt 0.731005 0.339744
vt 0.710378 0.299511
vt 0.719121 0.043213
vt 0.772384 0.161269
vt 0.653270 0.218884
vt 0.568012 0.107035
vt 0.847961 0.044738
vt 0.893883 0.161825
vt 0.035234 0.413120
vt 0.131232 0.330198
vt 0.241040 0.409888
vt 0.154708 0.531663
vt 0.199897 0.264790
vt 0.273031 0.291397
vt 0.000143 0.275822
vt 0.104877 0.251381
vt 0.388756 0.433055
vt 0.305339 0.562279
vt 0.969266 0.000143
vt 0.999857 0.071112
vt 0.415335 0.211491
vt 0.399717 0.298190
vt 0.034352 0.144891
vt 0.098018 0.172147
vt 0.611777 0.296454
vt 0.494091 0.249607
vt 0.585083 0.392526
vt 0.670223 0.516818
vt 0.631684 0.529442
vt 0.800725 0.607423
vt 0.800725 0.634796
vt 0.773352 0.634796
vt 0.773352 0.607423
vt 0.505427 0.415151
vt 0.598577 0.544590
vt 0.797988 0.586576
vt 0.776089 0.586576
vt 0.461707 0.123212
vt 0.319647 0.050890
vt 0.347565 0.027186
vt 0.773352 0.772929
vt 0.773352 0.745556
vt 0.800725 0.745556
vt 0.800725 0.772929
vt 0.493805 0.047064
vt 0.363816 0.000143
vt 0.776090 0.793776
vt 0.797988 0.793776
vt 0.230445 0.070619
vt 0.265251 0.064401
vt 0.773352 0.703863
vt 0.773352 0.676490
vt 0.800725 0.676490
vt 0.800725 0.703863
vt 0.293739 0.062581
vt 0.776089 0.724710
vt 0.797988 0.724710
vt 0.699342 0.510618
vt 0.797988 0.655643
vt 0.776089 0.655643
vt 0.204107 0.072747
vt 0.223916 0.230023
vt 0.271097 0.238925
vt 0.493805 0.567470
vt 0.439940 0.645127
vt 0.143321 0.059187
vt 0.178750 0.065924
vt 0.117288 0.045022
vt 0.854785 0.551819
vt 0.822281 0.527116
vt 0.966937 0.454856
vt 0.871298 0.578478
vt 0.999857 0.530105
vt 0.767110 0.512020
vt 0.728629 0.514469
vt 0.796276 0.514583
vt 0.733482 0.346947
vt 0.780182 0.340813
vt 0.270709 0.230754
vt 0.226621 0.223550
vt 0.651413 0.679448
vt 0.588153 0.679448
vt 0.607285 0.627710
vt 0.651413 0.608307
vt 0.489649 0.180142
vt 0.445901 0.421286
vt 0.923356 0.367681
vt 0.996232 0.405732
vt 0.913793 0.279611
vt 0.966665 0.183601
vt 0.425471 0.297089
vt 0.465217 0.363565
vt 0.973789 0.222575
vt 0.939768 0.284764
vt 0.945481 0.352058
vt 0.436565 0.229732
vt 0.479083 0.213159
vt 0.987492 0.369025
vt 0.479824 0.762581
vt 0.514833 0.764599
vt 0.524119 0.793891
vt 0.481050 0.830759
vt 0.579130 0.619669
vt 0.582496 0.578764
vt 0.502394 0.690092
vt 0.540852 0.702066
vt 0.511068 0.650562
vt 0.573847 0.770698
vt 0.573847 0.855325
vt 0.494091 0.602851
vn 0.0000 0.7740 -0.6332
vn -0.0621 0.7566 -0.6510
vn 0.0000 0.7740 0.6332
vn -0.7572 0.0603 -0.6504
vn 0.7572 0.0603 0.6504
vn -0.7572 0.0603 0.6504
vn 0.7572 0.0603 -0.6504
vn 0.4442 0.4504 0.7745
vn 0.0000 0.3939 0.9191
vn 0.0000 -0.3939 0.9191
vn 0.0000 0.0000 1.0000
vn 0.4516 -0.4516 0.7695
vn 0.3939 0.0000 0.9191
vn 0.0000 -0.3939 -0.9191
vn 0.0000 0.0000 -1.0000
vn -0.4516 -0.4516 -0.7695
vn -0.3939 0.0000 -0.9191
vn 0.4516 -0.4516 -0.7695
vn 0.3939 0.0000 -0.9191
vn 0.7572 -0.0600 -0.6504
vn 0.0000 0.9648 0.2631
vn -0.7572 -0.0600 0.6504
vn -0.7740 0.0000 0.6332
vn -0.4516 -0.4516 0.7695
vn -0.3939 0.0000 0.9191
vn -0.7740 0.0000 -0.6332
vn -1.0000 0.0000 0.0000
vn -0.7394 -0.1138 -0.6636
vn -0.9191 -0.3939 0.0000
vn 0.7740 0.0000 0.6332
vn 1.0000 0.0000 0.0000
vn 0.7394 -0.1138 0.6636
vn 0.9191 -0.3939 0.0000
vn 0.0000 1.0000 0.0000
vn 0.1138 0.7394 0.6636
vn 0.3939 0.9191 0.0000
vn 0.7394 0.1138 0.6636
vn 0.9191 0.3939 0.0000
vn -0.7394 0.1138 -0.6636
vn -0.9191 0.3939 0.0000
vn -0.1138 0.7394 0.6636
vn -0.3939 0.9191 0.0000
vn -0.4442 0.4504 -0.7745
vn -0.0621 0.7566 0.6510
vn 0.4442 0.4504 -0.7745
vn 0.0000 0.3939 -0.9191
vn 0.7572 -0.0600 0.6504
vn -0.7394 -0.1138 0.6636
vn -0.7394 0.1138 0.6636
vn -0.4442 0.4504 0.7745
vn -0.7572 -0.0600 -0.6504
vn 0.7740 0.0000 -0.6332
vn 0.7394 -0.1138 -0.6636
vn 0.1138 0.7394 -0.6636
vn 0.7394 0.1138 -0.6636
vn -0.1138 0.7394 -0.6636
vn -0.4096 0.9102 0.0617
vn 0.4096 0.9102 0.0617
vn 0.0000 0.9709 0.2395
vn 0.0621 0.7566 -0.6510
vn 0.4096 0.9102 -0.0617
vn -0.4096 0.9102 -0.0617
vn 0.0000 0.9709 -0.2395
vn 0.0621 0.7566 0.6510
vn 0.0000 0.9648 -0.2631
usemtl Material
s off
f 57/1/1 58/2/1 72/3/1 69/4/1
f 58/2/2 61/5/2 68/6/2 72/3/2
f 80/7/3 77/8/3 52/9/3 51/10/3
f 12/11/4 67/12/4 68/6/4 61/5/4 64/13/4
f 9/14/5 73/15/5 74/16/5 50/17/5 54/18/5
f 48/19/6 45/20/6 75/21/6 76/22/6 15/23/6
f 60/24/7 56/25/7 65/26/7 66/27/7 13/28/7
f 13/28/8 66/27/8 70/29/8 21/30/8
f 21/30/9 70/29/9 71/31/9 23/32/9
f 8/33/10 22/34/10 24/35/10 7/36/10
f 22/34/11 21/30/11 23/32/11 24/35/11
f 2/37/12 14/38/12 22/34/12 8/33/12
f 14/38/13 13/28/13 21/30/13 22/34/13
f 6/39/14 18/40/14 20/41/14 5/42/14
f 18/40/15 17/43/15 19/44/15 20/41/15
f 3/45/16 16/46/16 18/40/16 6/39/16
f 16/46/17 15/23/17 17/43/17 18/40/17
f 5/42/18 20/41/18 10/47/18 1/48/18
f 20/41/19 19/44/19 9/14/19 10/47/19
f 62/49/20 59/50/20 14/38/20 2/37/20
f 9/14/21 54/18/21 96/51/21 89/52/21
f 49/53/22 47/54/22 16/46/22 3/45/22
f 47/54/23 48/19/23 15/23/23 16/46/23
f 7/36/24 24/35/24 11/55/24 4/56/24
f 24/35/25 23/32/25 12/11/25 11/55/25
f 63/57/26 64/13/26 43/58/26 41/59/26
f 41/60/27 43/61/27 44/62/27 42/63/27
f 55/64/28 63/57/28 41/59/28 26/65/28
f 26/66/29 41/60/29 42/63/29 25/67/29
f 53/68/30 54/18/30 39/69/30 37/70/30
f 37/71/31 39/72/31 40/73/31 38/74/31
f 46/75/32 53/68/32 37/70/32 32/76/32
f 32/77/33 37/71/33 38/74/33 31/78/33
f 51/10/3 52/9/3 35/79/3 33/80/3
f 33/81/34 35/82/34 36/83/34 34/84/34
f 50/17/35 51/10/35 33/80/35 27/85/35
f 27/86/36 33/81/36 34/84/36 28/87/36
f 54/18/37 50/17/37 27/85/37 39/69/37
f 39/72/38 27/86/38 28/87/38 40/73/38
f 64/13/39 61/5/39 29/88/39 43/58/39
f 43/61/40 29/89/40 30/90/40 44/62/40
f 52/9/41 45/20/41 30/91/41 35/79/41
f 35/82/42 30/90/42 29/89/42 36/83/42
f 15/23/43 76/22/43 78/92/43 17/43/43
f 77/8/44 75/21/44 45/20/44 52/9/44
f 19/44/45 79/93/45 73/15/45 9/14/45
f 17/43/46 78/92/46 79/93/46 19/44/46
f 1/48/47 10/47/47 53/94/47 46/95/47
f 42/96/23 44/97/23 48/19/23 47/54/23
f 25/98/48 42/96/48 47/54/48 49/53/48
f 44/97/49 30/91/49 45/20/49 48/19/49
f 23/32/50 71/31/50 67/12/50 12/11/50
f 4/56/51 11/55/51 63/57/51 55/64/51
f 11/55/26 12/11/26 64/13/26 63/57/26
f 38/99/52 40/100/52 60/24/52 59/101/52
f 31/102/53 38/99/53 59/101/53 62/103/53
f 34/104/1 36/105/1 58/2/1 57/1/1
f 28/106/54 34/104/54 57/1/54 56/25/54
f 40/100/55 28/106/55 56/25/55 60/24/55
f 36/105/56 29/88/56 61/5/56 58/2/56
f 72/107/57 68/6/57 67/12/57 71/31/57
f 65/26/58 69/108/58 70/29/58 66/27/58
f 69/108/59 72/107/59 71/31/59 70/29/59
f 56/25/60 57/1/60 69/4/60 65/26/60
f 80/109/61 74/16/61 73/15/61 79/93/61
f 75/21/62 77/110/62 78/92/62 76/22/62
f 77/110/63 80/109/63 79/93/63 78/92/63
f 74/16/64 80/7/64 51/10/64 50/17/64
f 82/111/15 81/112/15 97/113/15 98/114/15
f 54/18/11 53/68/11 95/115/11 96/51/11
f 10/47/15 9/14/15 89/52/15 90/116/15
f 59/101/15 60/24/15 94/117/15 93/118/15
f 60/24/65 13/28/65 91/119/65 94/117/65
f 13/28/11 14/38/11 92/120/11 91/119/11
f 81/121/30 82/122/30 90/116/30 89/52/30
f 84/123/52 83/124/52 91/119/52 92/120/52
f 83/124/52 86/125/52 94/117/52 91/119/52
f 88/126/30 81/121/30 89/52/30 96/51/30
f 87/127/30 88/126/30 96/51/30 95/115/30
f 86/125/52 85/128/52 93/118/52 94/117/52
f 101/129/52 102/130/52 99/131/52 100/132/52
f 98/114/30 97/113/30 104/133/30 103/134/30
f 85/135/15 86/136/15 102/130/15 101/129/15
f 81/112/21 88/137/21 104/133/21 97/113/21
f 86/136/65 83/138/65 99/131/65 102/130/65
f 83/138/11 84/139/11 100/132/11 99/131/11
f 88/137/11 87/140/11 103/134/11 104/133/11
