# Blender v2.81 (sub 16) OBJ File: 'asteroid.blend'
# www.blender.org
mtllib asteroid.mtl
o Icosphere
v 1.381940 2.236099 4.253246
v -5.599786 2.236098 2.628627
v -6.618825 2.236098 -2.628627
v 1.381940 2.236099 -4.899278
v 3.629693 1.849742 0.000000
v -0.842438 3.836718 0.000000
v 4.755290 0.000000 1.545063
v 4.755290 0.000000 -1.545063
v -0.964833 0.000000 5.000000
v 2.938928 0.000000 4.045084
v -7.756078 0.000000 1.545063
v -3.903761 0.000000 4.045084
v -2.938928 0.000000 -4.691116
v -7.756078 0.000000 -1.545063
v 2.938928 0.000000 -4.045084
v 0.000000 0.000000 -5.646032
v 3.440947 2.628681 2.499985
v -1.314344 2.628689 4.045058
v -7.254027 2.628680 0.000000
v -3.322724 1.997267 -3.910202
v 2.598509 2.242345 -2.499985
v -0.030160 3.866935 2.499976
v 1.786211 3.866922 0.000000
v -2.126614 3.476325 1.545057
v -2.126614 3.476325 -1.545057
v -0.030160 3.089989 -2.499976
vt 0.818181 0.314921
vt 0.727272 0.314921
vt 0.772726 0.393651
vt 1.000000 0.314921
vt 0.909091 0.314921
vt 0.954545 0.393651
vt 0.272727 0.314921
vt 0.181818 0.314921
vt 0.227273 0.393651
vt 0.454545 0.314921
vt 0.329216 0.314921
vt 0.409090 0.393651
vt 0.636363 0.314921
vt 0.545454 0.314921
vt 0.590909 0.393651
vt 0.500000 0.393651
vt 0.545454 0.472382
vt 0.318182 0.393651
vt 0.363636 0.472382
vt 0.136363 0.393651
vt 0.181818 0.472382
vt 0.090909 0.314921
vt 0.863635 0.393651
vt 0.909090 0.472382
vt 0.681818 0.393651
vt 0.727272 0.472382
vt 0.590909 0.236191
vt 0.500000 0.236191
vt 0.409090 0.236191
vt 0.318182 0.236191
vt 0.227273 0.236191
vt 0.136363 0.236191
vt 0.954545 0.236191
vt 0.863635 0.236191
vt 0.772726 0.236191
vt 0.681818 0.236191
vt 0.045454 0.236191
vn 0.2874 0.8057 0.5179
vn -0.2063 0.9043 0.3737
vn -0.2170 0.9565 -0.1953
vn -0.1301 0.9075 -0.3995
vn 0.7240 0.6617 -0.1947
vn -0.0110 0.9571 -0.2895
vn 0.2724 0.8448 -0.4605
vn 0.3031 0.9401 -0.1562
vn 0.0544 0.9615 -0.2695
vn -0.0704 0.8614 -0.5031
vn -0.1239 0.8683 -0.4804
vn -0.2702 0.9628 0.0000
vn -0.1631 0.9866 0.0000
vn -0.2404 0.9264 0.2897
vn -0.2073 0.9767 0.0555
vn -0.3405 0.8513 0.3993
vn 0.0593 0.7543 0.6538
vn -0.0115 0.9999 -0.0084
vn 0.3264 0.9150 0.2371
vn 0.7295 0.6667 -0.1527
vn 0.7478 0.6300 -0.2095
vn 0.7155 0.4668 -0.5198
vn 0.8136 0.4085 -0.4136
vn -0.2070 0.4226 -0.8824
vn -0.2950 0.2983 -0.9078
vn -0.3288 0.2884 -0.8993
vn -0.9050 0.3304 -0.2680
vn -0.9822 0.1876 0.0000
vn -0.7258 0.4463 0.5234
vn -0.3237 0.3188 0.8908
vn -0.2956 0.2912 0.9098
vn -0.0233 0.3386 0.9406
vn 0.5746 0.3304 0.7488
vn 0.7947 0.1876 0.5773
vn 0.8797 0.4688 -0.0796
vn 0.4784 -0.0024 -0.8782
vn -0.5424 -0.1266 -0.8305
vn -0.5406 0.1176 0.8330
vn 0.2369 0.0748 0.9686
vn 0.8543 0.5198 0.0000
usemtl None
s off
f 1/1/1 17/2/1 22/3/1
f 2/4/2 18/5/2 24/6/2
f 3/7/3 19/8/3 25/9/3
f 4/10/4 20/11/4 26/12/4
f 5/13/5 21/14/5 23/15/5
f 23/15/6 26/16/6 6/17/6
f 23/15/7 21/14/7 26/16/7
f 21/14/8 4/10/8 26/16/8
f 26/12/9 25/18/9 6/19/9
f 26/12/10 20/11/10 25/18/10
f 20/11/11 3/7/11 25/18/11
f 25/9/12 24/20/12 6/21/12
f 25/9/13 19/8/13 24/20/13
f 19/8/14 2/22/14 24/20/14
f 24/6/15 22/23/15 6/24/15
f 24/6/16 18/5/16 22/23/16
f 18/5/17 1/1/17 22/23/17
f 22/3/18 23/25/18 6/26/18
f 22/3/19 17/2/19 23/25/19
f 17/2/20 5/13/20 23/25/20
f 8/27/21 21/14/21 5/13/21
f 8/27/22 15/28/22 21/14/22
f 15/28/23 4/10/23 21/14/23
f 16/29/24 20/11/24 4/10/24
f 16/29/25 13/30/25 20/11/25
f 13/30/26 3/7/26 20/11/26
f 14/31/27 19/8/27 3/7/27
f 14/31/28 11/32/28 19/8/28
f 11/32/29 2/22/29 19/8/29
f 12/33/30 18/5/30 2/4/30
f 12/33/31 9/34/31 18/5/31
f 9/34/32 1/1/32 18/5/32
f 10/35/33 17/2/33 1/1/33
f 10/35/34 7/36/34 17/2/34
f 7/36/35 5/13/35 17/2/35
f 15/28/36 16/29/36 4/10/36
f 13/30/37 14/31/37 3/7/37
f 11/32/38 12/37/38 2/22/38
f 9/34/39 10/35/39 1/1/39
f 7/36/40 8/27/40 5/13/40
