# Blender v2.81 (sub 16) OBJ File: 'asteroid2.blend'
# www.blender.org
mtllib asteroid2.mtl
o Icosphere
v 4.304193 2.236099 4.253246
v -4.327515 2.690410 2.231700
v -7.680715 1.502480 -3.373869
v 1.381940 3.795780 -4.899278
v 6.551946 1.849742 0.000000
v -0.842438 4.640751 0.000000
v 7.677543 0.000000 1.545063
v 7.677543 0.000000 -1.545063
v -0.964833 0.000000 8.165201
v 5.861181 0.000000 4.045084
v -8.817967 -0.733617 0.799821
v -4.045879 0.902305 5.540576
v -4.000818 -0.733617 -5.436358
v -8.817967 -0.733617 -2.290305
v 2.938928 0.000000 -4.045084
v 0.000000 0.000000 -5.646032
v 6.363200 2.628681 2.499985
v -1.314344 2.628689 7.210260
v -8.315917 1.895062 -0.745242
v -4.384614 1.263649 -4.655444
v 2.598509 3.802026 -2.499985
v 2.892092 3.866935 2.499976
v 1.786211 4.670955 0.000000
v -2.126614 3.476325 1.545057
v -3.188504 4.302388 -2.290299
v -0.030160 4.649670 -2.499976
vt 0.818181 0.314921
vt 0.727272 0.314921
vt 0.772726 0.393651
vt 0.983349 0.343761
vt 0.909091 0.314921
vt 0.954545 0.393651
vt 0.272727 0.314921
vt 0.181818 0.314921
vt 0.227273 0.393651
vt 0.454545 0.314921
vt 0.329216 0.314921
vt 0.409090 0.393651
vt 0.636363 0.314921
vt 0.545454 0.314921
vt 0.590909 0.393651
vt 0.500000 0.393651
vt 0.545454 0.472382
vt 0.318182 0.393651
vt 0.363636 0.472382
vt 0.136363 0.393651
vt 0.181818 0.472382
vt 0.107560 0.343761
vt 0.863635 0.393651
vt 0.909090 0.472382
vt 0.681818 0.393651
vt 0.727272 0.472382
vt 0.590909 0.236191
vt 0.500000 0.236191
vt 0.409090 0.236191
vt 0.318182 0.236191
vt 0.227273 0.236191
vt 0.136363 0.236191
vt 0.964205 0.272268
vt 0.863635 0.236191
vt 0.772726 0.236191
vt 0.681818 0.236191
vt 0.066283 0.272268
vn 0.2874 0.8057 0.5179
vn -0.2801 0.9427 0.1812
vn -0.4710 0.8487 -0.2406
vn -0.3666 0.7872 -0.4959
vn 0.5049 0.8529 -0.1324
vn -0.0115 0.9999 -0.0002
vn 0.2990 0.9273 -0.2251
vn 0.3031 0.9401 -0.1562
vn -0.1114 0.9932 -0.0326
vn -0.1207 0.6389 -0.7598
vn -0.2330 0.6528 -0.7208
vn -0.4168 0.8580 0.3002
vn -0.3352 0.8976 0.2861
vn -0.2937 0.9455 0.1409
vn -0.1620 0.8481 0.5045
vn -0.1072 0.9809 0.1621
vn 0.3175 0.8082 0.4960
vn -0.0109 0.9505 0.3105
vn 0.3321 0.9309 0.1525
vn 0.4965 0.8387 -0.2238
vn 0.5964 0.6964 -0.3993
vn 0.4331 0.3724 -0.8209
vn 0.8621 0.2551 -0.4378
vn -0.1469 0.2422 -0.9591
vn -0.1118 0.3432 -0.9326
vn -0.3288 0.2884 -0.8993
vn -0.9050 0.3304 -0.2680
vn -0.9822 0.1876 0.0000
vn -0.5817 0.4919 0.6479
vn -0.6521 0.6424 0.4026
vn -0.6004 0.2013 0.7740
vn 0.4545 0.3569 0.8161
vn 0.5746 0.3304 0.7488
vn 0.7947 0.1876 0.5773
vn 0.8797 0.4688 -0.0796
vn 0.4784 -0.0014 -0.8782
vn -0.5424 -0.1266 -0.8305
vn -0.6322 0.6579 0.4093
vn 0.4976 0.2697 0.8244
vn 0.8543 0.5198 0.0000
usemtl None
s off
f 1/1/1 17/2/1 22/3/1
f 2/4/2 18/5/2 24/6/2
f 3/7/3 19/8/3 25/9/3
f 4/10/4 20/11/4 26/12/4
f 5/13/5 21/14/5 23/15/5
f 23/15/6 26/16/6 6/17/6
f 23/15/7 21/14/7 26/16/7
f 21/14/8 4/10/8 26/16/8
f 26/12/9 25/18/9 6/19/9
f 26/12/10 20/11/10 25/18/10
f 20/11/11 3/7/11 25/18/11
f 25/9/12 24/20/12 6/21/12
f 25/9/13 19/8/13 24/20/13
f 19/8/14 2/22/14 24/20/14
f 24/6/15 22/23/15 6/24/15
f 24/6/16 18/5/16 22/23/16
f 18/5/17 1/1/17 22/23/17
f 22/3/18 23/25/18 6/26/18
f 22/3/19 17/2/19 23/25/19
f 17/2/20 5/13/20 23/25/20
f 8/27/21 21/14/21 5/13/21
f 8/27/22 15/28/22 21/14/22
f 15/28/23 4/10/23 21/14/23
f 16/29/24 20/11/24 4/10/24
f 16/29/25 13/30/25 20/11/25
f 13/30/26 3/7/26 20/11/26
f 14/31/27 19/8/27 3/7/27
f 14/31/28 11/32/28 19/8/28
f 11/32/29 2/22/29 19/8/29
f 12/33/30 18/5/30 2/4/30
f 12/33/31 9/34/31 18/5/31
f 9/34/32 1/1/32 18/5/32
f 10/35/33 17/2/33 1/1/33
f 10/35/34 7/36/34 17/2/34
f 7/36/35 5/13/35 17/2/35
f 15/28/36 16/29/36 4/10/36
f 13/30/37 14/31/37 3/7/37
f 11/32/38 12/37/38 2/22/38
f 9/34/39 10/35/39 1/1/39
f 7/36/40 8/27/40 5/13/40
